<svg version="1.1" xmlns="http://www.w3.org/2000/svg" xmlns:xlink="http://www.w3.org/1999/xlink" x="0px" y="0px" viewBox="0 0 362 332" style="enable-background:new 0 0 362.2 332.8;" xml:space="preserve" id="el_jnNNe3CtW"><style>@-webkit-keyframes kf_el_km6LJtDj5z_an_6ZsicbscE{0%{opacity: 0;}25%{opacity: 1;}100%{opacity: 1;}}@keyframes kf_el_km6LJtDj5z_an_6ZsicbscE{0%{opacity: 0;}25%{opacity: 1;}100%{opacity: 1;}}@-webkit-keyframes kf_el_km6LJtDj5z_an_ugs32Mxte{0%{-webkit-transform: translate(181.0808458328247px, 185.99675750732422px) scale(0.5, 0.5) translate(-181.0808458328247px, -185.99675750732422px);transform: translate(181.0808458328247px, 185.99675750732422px) scale(0.5, 0.5) translate(-181.0808458328247px, -185.99675750732422px);}25%{-webkit-transform: translate(181.0808458328247px, 185.99675750732422px) scale(1, 1) translate(-181.0808458328247px, -185.99675750732422px);transform: translate(181.0808458328247px, 185.99675750732422px) scale(1, 1) translate(-181.0808458328247px, -185.99675750732422px);}100%{-webkit-transform: translate(181.0808458328247px, 185.99675750732422px) scale(1, 1) translate(-181.0808458328247px, -185.99675750732422px);transform: translate(181.0808458328247px, 185.99675750732422px) scale(1, 1) translate(-181.0808458328247px, -185.99675750732422px);}}@keyframes kf_el_km6LJtDj5z_an_ugs32Mxte{0%{-webkit-transform: translate(181.0808458328247px, 185.99675750732422px) scale(0.5, 0.5) translate(-181.0808458328247px, -185.99675750732422px);transform: translate(181.0808458328247px, 185.99675750732422px) scale(0.5, 0.5) translate(-181.0808458328247px, -185.99675750732422px);}25%{-webkit-transform: translate(181.0808458328247px, 185.99675750732422px) scale(1, 1) translate(-181.0808458328247px, -185.99675750732422px);transform: translate(181.0808458328247px, 185.99675750732422px) scale(1, 1) translate(-181.0808458328247px, -185.99675750732422px);}100%{-webkit-transform: translate(181.0808458328247px, 185.99675750732422px) scale(1, 1) translate(-181.0808458328247px, -185.99675750732422px);transform: translate(181.0808458328247px, 185.99675750732422px) scale(1, 1) translate(-181.0808458328247px, -185.99675750732422px);}}@-webkit-keyframes kf_el_0quj4bohYs_an_emS_ZlkpT{75%{opacity: 0;}100%{opacity: 1;}0%{opacity: 0;}}@keyframes kf_el_0quj4bohYs_an_emS_ZlkpT{75%{opacity: 0;}100%{opacity: 1;}0%{opacity: 0;}}@-webkit-keyframes kf_el_GfsK1iOvCu_an_lFvod3y_d{50%{opacity: 0;}75%{opacity: 1;}0%{opacity: 0;}100%{opacity: 1;}}@keyframes kf_el_GfsK1iOvCu_an_lFvod3y_d{50%{opacity: 0;}75%{opacity: 1;}0%{opacity: 0;}100%{opacity: 1;}}@-webkit-keyframes kf_el_yRuI3-KCTc_an_kQ3TBgrwt{75%{opacity: 0;}100%{opacity: 1;}0%{opacity: 0;}}@keyframes kf_el_yRuI3-KCTc_an_kQ3TBgrwt{75%{opacity: 0;}100%{opacity: 1;}0%{opacity: 0;}}@-webkit-keyframes kf_el_xchYkcUDlp_an_lNTsHOa7Q{50%{-webkit-transform: translate(181.85000610351562px, 166.39373779296875px) scale(0, 0) translate(-181.85000610351562px, -166.39373779296875px);transform: translate(181.85000610351562px, 166.39373779296875px) scale(0, 0) translate(-181.85000610351562px, -166.39373779296875px);}75%{-webkit-transform: translate(181.85000610351562px, 166.39373779296875px) scale(1, 1) translate(-181.85000610351562px, -166.39373779296875px);transform: translate(181.85000610351562px, 166.39373779296875px) scale(1, 1) translate(-181.85000610351562px, -166.39373779296875px);}0%{-webkit-transform: translate(181.85000610351562px, 166.39373779296875px) scale(0, 0) translate(-181.85000610351562px, -166.39373779296875px);transform: translate(181.85000610351562px, 166.39373779296875px) scale(0, 0) translate(-181.85000610351562px, -166.39373779296875px);}100%{-webkit-transform: translate(181.85000610351562px, 166.39373779296875px) scale(1, 1) translate(-181.85000610351562px, -166.39373779296875px);transform: translate(181.85000610351562px, 166.39373779296875px) scale(1, 1) translate(-181.85000610351562px, -166.39373779296875px);}}@keyframes kf_el_xchYkcUDlp_an_lNTsHOa7Q{50%{-webkit-transform: translate(181.85000610351562px, 166.39373779296875px) scale(0, 0) translate(-181.85000610351562px, -166.39373779296875px);transform: translate(181.85000610351562px, 166.39373779296875px) scale(0, 0) translate(-181.85000610351562px, -166.39373779296875px);}75%{-webkit-transform: translate(181.85000610351562px, 166.39373779296875px) scale(1, 1) translate(-181.85000610351562px, -166.39373779296875px);transform: translate(181.85000610351562px, 166.39373779296875px) scale(1, 1) translate(-181.85000610351562px, -166.39373779296875px);}0%{-webkit-transform: translate(181.85000610351562px, 166.39373779296875px) scale(0, 0) translate(-181.85000610351562px, -166.39373779296875px);transform: translate(181.85000610351562px, 166.39373779296875px) scale(0, 0) translate(-181.85000610351562px, -166.39373779296875px);}100%{-webkit-transform: translate(181.85000610351562px, 166.39373779296875px) scale(1, 1) translate(-181.85000610351562px, -166.39373779296875px);transform: translate(181.85000610351562px, 166.39373779296875px) scale(1, 1) translate(-181.85000610351562px, -166.39373779296875px);}}#el_jnNNe3CtW *{-webkit-animation-duration: 4s;animation-duration: 4s;-webkit-animation-iteration-count: 1;animation-iteration-count: 1;-webkit-animation-timing-function: cubic-bezier(0, 0, 1, 1);animation-timing-function: cubic-bezier(0, 0, 1, 1);}#el_xchYkcUDlp{fill-rule: evenodd;clip-rule: evenodd;fill: #231F20;}#el_yRuI3-KCTc{fill-rule: evenodd;clip-rule: evenodd;fill: #FFFFFF;-webkit-animation-fill-mode: forwards;animation-fill-mode: forwards;-webkit-animation-name: kf_el_yRuI3-KCTc_an_kQ3TBgrwt;animation-name: kf_el_yRuI3-KCTc_an_kQ3TBgrwt;-webkit-animation-timing-function: cubic-bezier(0, 0, 0.58, 1);animation-timing-function: cubic-bezier(0, 0, 0.58, 1);}#el_GfsK1iOvCu{fill-rule: evenodd;clip-rule: evenodd;fill: #4899C3;-webkit-animation-fill-mode: forwards;animation-fill-mode: forwards;-webkit-animation-name: kf_el_GfsK1iOvCu_an_lFvod3y_d;animation-name: kf_el_GfsK1iOvCu_an_lFvod3y_d;-webkit-animation-timing-function: cubic-bezier(0.42, 0, 1, 1);animation-timing-function: cubic-bezier(0.42, 0, 1, 1);}#el_0quj4bohYs{fill: #FFFFFF;-webkit-animation-fill-mode: forwards;animation-fill-mode: forwards;-webkit-animation-name: kf_el_0quj4bohYs_an_emS_ZlkpT;animation-name: kf_el_0quj4bohYs_an_emS_ZlkpT;-webkit-animation-timing-function: cubic-bezier(0.42, 0, 0.58, 1);animation-timing-function: cubic-bezier(0.42, 0, 0.58, 1);}#el_bmq2l5sN0u{fill: #231F20;}#el_2p8Vy6fbCz{fill-rule: evenodd;clip-rule: evenodd;fill: #231F20;}#el_mvpzArA-D6{fill-rule: evenodd;clip-rule: evenodd;fill: #231F20;}#el_C7IW2ldZNa{fill-rule: evenodd;clip-rule: evenodd;fill: #FFFFFF;}#el_0aqfr-1a62{fill-rule: evenodd;clip-rule: evenodd;fill: #FFFFFF;}#el_D0Rts-bbDo{fill-rule: evenodd;clip-rule: evenodd;fill: #FFFFFF;}#el_Rpku_yHr4W{fill-rule: evenodd;clip-rule: evenodd;fill: #FFFFFF;}#el_PK01GbES1a{fill-rule: evenodd;clip-rule: evenodd;fill: #F44029;}#el_F-TfkGaeDx{fill-rule: evenodd;clip-rule: evenodd;fill: #F44029;}#el_JWu631jrVTN{fill-rule: evenodd;clip-rule: evenodd;fill: #F44029;}#el_CSrYAp5Wo29{fill-rule: evenodd;clip-rule: evenodd;fill: #F44029;}#el_n8D0S9vhs1R{fill-rule: evenodd;clip-rule: evenodd;fill: #F44029;}#el_A_4HGy_ep4t{fill-rule: evenodd;clip-rule: evenodd;fill: #F44029;}#el_XEK9BmflFZP{fill-rule: evenodd;clip-rule: evenodd;fill: #F44029;}#el_BvoRjda3K-k{fill-rule: evenodd;clip-rule: evenodd;fill: #F44029;}#el_UnSfgYbDqXW{fill-rule: evenodd;clip-rule: evenodd;fill: #F44029;}#el_r9wbu7p0SyK{fill-rule: evenodd;clip-rule: evenodd;fill: #F44029;}#el_0x_ZsWW_XJP{fill-rule: evenodd;clip-rule: evenodd;fill: #FFFFFF;}#el_BR6czkb9re9{fill-rule: evenodd;clip-rule: evenodd;fill: #F44029;}#el_FtPCdmO2g1_{fill-rule: evenodd;clip-rule: evenodd;fill: #F44029;}#el__VvdECy48dN{fill-rule: evenodd;clip-rule: evenodd;fill: #F44029;}#el_StPT-2gCZnD{fill-rule: evenodd;clip-rule: evenodd;fill: #F44029;}#el__MAa-C67ft0{fill-rule: evenodd;clip-rule: evenodd;fill: #FFFFFF;}#el__Cc5lkSfs6c{fill-rule: evenodd;clip-rule: evenodd;fill: #FFFFFF;}#el_sBihTCZycRU{fill: #231F20;}#el_mRBDAjpx5qO{fill: #FFFFFF;}#el_7vBUYfLPuC3{fill-rule: evenodd;clip-rule: evenodd;fill: #FFFFFF;}#el_Gixom1hZqwI{fill-rule: evenodd;clip-rule: evenodd;fill: #FFFFFF;}#el_4bKI-NsX29t{fill-rule: evenodd;clip-rule: evenodd;fill: #F44029;}#el_E0g_s23kWPH{fill-rule: evenodd;clip-rule: evenodd;fill: #231F20;}#el_ZNlx1lYW5sV{fill-rule: evenodd;clip-rule: evenodd;fill: #231F20;}#el_SV0eUa7eJZC{fill-rule: evenodd;clip-rule: evenodd;fill: #231F20;}#el_mgwqVCQdsA3{fill-rule: evenodd;clip-rule: evenodd;fill: #231F20;}#el_P8ZKki3JlZA{fill-rule: evenodd;clip-rule: evenodd;fill: #231F20;}#el_apVr8XdPYob{fill-rule: evenodd;clip-rule: evenodd;fill: #F44029;}#el_bK5GTVPYyam{fill-rule: evenodd;clip-rule: evenodd;fill: #F44029;}#el_IQsn_6JGLSC{fill-rule: evenodd;clip-rule: evenodd;fill: #7D212B;}#el_o3GpHjw69U2{fill-rule: evenodd;clip-rule: evenodd;fill: #F44029;}#el_a6R1lMVgRvn{fill-rule: evenodd;clip-rule: evenodd;fill: #F44029;}#el_nEE_6byFBKO{fill-rule: evenodd;clip-rule: evenodd;fill: #F44029;}#el_bwa40Eb7Y-i{fill-rule: evenodd;clip-rule: evenodd;fill: #F44029;}#el_ehttjxZwyYd{fill-rule: evenodd;clip-rule: evenodd;fill: #F44029;}#el_UBZQJdsar2s{fill-rule: evenodd;clip-rule: evenodd;fill: #F44029;}#el_PQ_hbxy8m93{fill-rule: evenodd;clip-rule: evenodd;fill: #F44029;}#el_IBwPBCYgG5v{fill-rule: evenodd;clip-rule: evenodd;fill: #F44029;}#el_xchYkcUDlp_an_lNTsHOa7Q{-webkit-animation-fill-mode: forwards;animation-fill-mode: forwards;-webkit-animation-name: kf_el_xchYkcUDlp_an_lNTsHOa7Q;animation-name: kf_el_xchYkcUDlp_an_lNTsHOa7Q;-webkit-animation-timing-function: cubic-bezier(0.42, 0, 0.58, 1);animation-timing-function: cubic-bezier(0.42, 0, 0.58, 1);}#el_km6LJtDj5z_an_ugs32Mxte{-webkit-animation-fill-mode: forwards;animation-fill-mode: forwards;-webkit-animation-name: kf_el_km6LJtDj5z_an_ugs32Mxte;animation-name: kf_el_km6LJtDj5z_an_ugs32Mxte;-webkit-animation-timing-function: cubic-bezier(0.42, 0, 1, 1);animation-timing-function: cubic-bezier(0.42, 0, 1, 1);}#el_km6LJtDj5z{-webkit-animation-fill-mode: forwards;animation-fill-mode: forwards;-webkit-animation-name: kf_el_km6LJtDj5z_an_6ZsicbscE;animation-name: kf_el_km6LJtDj5z_an_6ZsicbscE;-webkit-animation-timing-function: cubic-bezier(0.42, 0, 1, 1);animation-timing-function: cubic-bezier(0.42, 0, 1, 1);}</style>
<g id="el_wDW7r9oHXk">
	<g id="el_xchYkcUDlp_an_lNTsHOa7Q" data-animator-group="true" data-animator-type="2"><path d="M181.8,332.8L14,241.3V46.5l14.7-7.6&#10;&#9;&#9;C129.3-13,232.2-12.9,334.7,38.7l15,7.5v195L181.8,332.8z" id="el_xchYkcUDlp"/></g>
	<path d="M344.7,237.6L182,326.3L19.3,237.6V49.5l4.8-2.5&#10;&#9;&#9;C128.1-6.6,233.6-6.5,339.8,47l4.9,2.5V237.6z" id="el_yRuI3-KCTc"/>
	<path d="M335.8,55v177.3L182,316.2L28.2,232.3V55&#10;&#9;&#9;C129.5,2.7,232.1,2.7,335.8,55z" id="el_GfsK1iOvCu"/>
	<path d="M249.2,154.2c0.1,0.1,0.3,0.2,0.4,0.3c1,0.6,2.5,1.8,4.6,3.3c31.1-0.5,58.3-1.5,81.6-2.9v23.2&#10;&#9;&#9;c-15.9,1.6-33,2.7-50.7,3.6c18.2,14.3,38.9,30.6,50.7,39.9v10.7L182,316.2L69.8,255c4.7-17,24.5-36.2,65.9-47.1&#10;&#9;&#9;c1.7-1.2,3.4-2,5-2.6c1.7-0.6,3.4-1,5.1-1.5c2.3-0.6,4.2-1.1,6.1-2.1l-0.2-2.8L119,186.9l-4.1-4.9l-6.7-0.2c-0.5,3-1.3,5.8-2.2,8&#10;&#9;&#9;c-0.6,1.5-1.5,3-2.6,4.2c-1.1,1.2-2.8,2.4-5.1,2.4c-3.3,0-5.4-2.5-6.5-4.3l-0.3,0.3l-1.8,1.4l-2.2-0.7c-1.6-0.5-3.9-0.7-7.2-0.7&#10;&#9;&#9;c-3.4,0-7.3,0.3-11.9,0.4l-3.1,0.1l-1-2.9c-0.4-1-0.4-2.4-0.3-3.9c-1.6,0.1-3.1,0-4.5-0.4c-4.1,0.6-8,0.1-11.4-2.1l-1.7-1.1&#10;&#9;&#9;l-0.4-3.6c-6.6-0.4-12.6-0.8-17.9-1.1v-21.4l4.1,0.1c-0.7-1.5-1.1-3.4-0.9-5.5c-1.4-4.5-2.3-15,1-19.4c3.5-6.5,15.3-12.2,22.9-13&#10;&#9;&#9;l0.4,0l16.5,1.2c3.6-3.2,9.8-4.2,17.3-4.1l2.7-4.8l9-7l2.1-12.5c-3.5-5.5-4.1-12.2,2.6-16.1c4.7-2.8,12.2-3.2,21.8-1.7&#10;&#9;&#9;c1.3-8.7,11.7-9.5,21.2-6.3c6.3,2.7,10.3,6.9,11.1,11.7l1.5-1.1l15.1,3.4l4.8-2.2L208,59l4.7,2c7.1-4.6,14.7-6.8,22.5-6.3&#10;&#9;&#9;c4.7-2.1,10.8-4.3,18.7-2.7l16,0.8c6.9-0.8,15.4-0.7,26.3,3.1l0.8,0.3l0.7,0.6c6.9,6.5,10.6,19,4.4,26.6&#10;&#9;&#9;c-7,26.1-14.8,46.2-35.4,50.4C261.4,141.9,255.6,148.7,249.2,154.2z" id="el_0quj4bohYs"/>
</g>
<g id="el_km6LJtDj5z_an_ugs32Mxte" data-animator-group="true" data-animator-type="2"><g id="el_km6LJtDj5z">
	<path d="M156.2,203.9l-0.6-7.9c29.7-22.4,60.2-35.1,91.7-38c8.5,5.6,67.7,52.6,88.5,68.9v5.4L182,316.2&#10;&#9;&#9;L73.6,257c3.7-15.1,21.7-34.4,64-45.3C143.8,207,149.8,208.9,156.2,203.9z" id="el_bmq2l5sN0u"/>
	<path d="M242.7,154.1c2.3,1.5,2.5,2.4,4.6,3.8l-91.7,38l-34.1-12.6&#10;&#9;&#9;l-5.2-6.1l-21.7,0.9c-0.1,5-3.1,9-5.7,11.1c-4.6-1.5-11.4-0.8-20.5-0.5c-0.5-1.3,0.2-5.3,2.6-7.2h-3.2c-3.5,0.7-6.1,0.7-7.8,0&#10;&#9;&#9;c-3.7,0.8-6.9,0.3-9.5-1.3l-0.6-5.8l-3.5-13.7c-7.9-1.7-11.4-5.1-10.6-10.1c-1.6-3.4-2-14.5,0.3-16.6c2.2-4.8,12.6-10.4,19.9-11.2&#10;&#9;&#9;l18.2,1.4c1.7-2.9,7.3-4.7,18-4.2l3.5-6.3l10.8-8.4l-0.7-1.8l2.2-13c-7.5-9.8,0.2-17,24.4-11.7c-1.7-8.4,4.1-11.3,15.3-7.5&#10;&#9;&#9;c9.1,3.9,10.8,9.9,5.9,15.6l0.7,1.7l8.5-6.2l14.7,3.3l6.5-2.9l24.8-18.9l4.5,2c7.4-5.3,15-7.6,22.8-6.8c4.7-2.2,10.2-4.3,17.4-2.8&#10;&#9;&#9;L270,57c6.5-0.8,14.4-0.8,24.8,2.8c6.4,6,8.4,16.5,3.5,21.6c-7.4,27.9-14.9,45.7-34.2,48.6C257.7,140.1,250.6,148.1,242.7,154.1z" id="el_2p8Vy6fbCz"/>
	<path d="M362.1,157.2c-71.3,6.1-188.8,6.7-358.8,2.9&#10;&#9;&#9;c-4.2,2.1-4.7,9.1,0.2,11.4c23,3.4,234.9,15.6,352.7,0C360.6,167.8,362.6,163,362.1,157.2z" id="el_mvpzArA-D6"/>
	<path d="M150.8,107.9l4.5-3.7c3.5,8.2,1.8,21.3-3.3,27.5l-12.6-1.7&#10;&#9;&#9;c0.8-2.1,1.7-5.9-0.3-8.8c-1.5,4.5-2.1,7.1-4.6,8.4c-2.4,1.5-6.3,2.7-11.7,3.8c-9.3,2.6-13.5,0.5-12.7-6.1l-1.2-8&#10;&#9;&#9;c-1-3.9-0.5-7.5,1.4-10.8l-1.4-3.9l2.2-12.6c0.9,0.1,2.8,1.2,5.6,3.2c14.4-11,20.4-8,17.8,9c3.4,3,2.5,6.9-2.6,11.6&#10;&#9;&#9;c0.9,3.1,2.6,4.6,5.2,4.5c1.4-1.5,2.9-4.6,4.3-9.3c6.2-15,7.8,10.4,0,7.5C145.6,121.7,148.8,117.1,150.8,107.9z" id="el_C7IW2ldZNa"/>
	<path d="M263.7,82c-15.2-1.7-24.7,5.7-28.5,22.2l-13.9,43.3l-27.9,15.1&#10;&#9;&#9;l-0.5,19.2c2.5,0.8,4.5,0.6,5.9-0.3l0.4-12c0.9-2.2,1.8-2.2,2.8,0l0.1,11.9c2.2,0.9,4,0.8,5.3-0.4l0.6-11.2c1.1-1.4,1.8-1.4,2.1,0&#10;&#9;&#9;l-0.2,11.3c1.7,0.7,3.3,0.6,5-0.1l0.5-10.9c0.4-1.5,1.2-1.5,2.3-0.1l-0.5,10.9c1.8,0.5,4,0.6,6.6,0.2l5.4-1.9l-5.3-0.3l1.2-8.7&#10;&#9;&#9;c7.9-5.1,11.4-10.8,10.3-17.1l-3.4-1.9l5.8-0.2c21.5-18.3,31.7-38.5,30.8-60.5c-9,22.1-17.7,35.5-26.3,40.3&#10;&#9;&#9;C250.6,121.5,257.7,105.2,263.7,82z" id="el_0aqfr-1a62"/>
	<path d="M89.1,159.8l-1.1,18.8c-2,1.1-5.1,1.3-7.4,0l0.8-13.8&#10;&#9;&#9;c-0.6-1.3-1.4-1.3-2.5,0.1l-1.4,13.6c-2.1,1.5-4,1.2-5.7-0.9l0.8-12.9c-0.6-1.2-1.6-1.4-2.9-0.4l-1.3,13.2c-1.8,1-3.7,0.9-5.8-0.4&#10;&#9;&#9;l0.1-12.1c-0.3-0.8-1-0.8-2,0.1l-0.5,12.1c-3.1,1.3-5.5,1.1-7.2-0.5l0.1-14.6c0.4-4.7,4.1-9,8.4-5c4.1-3.1,7-3.5,10.1,0&#10;&#9;&#9;c3.3-2.8,6.9-2.8,9.2,0.4C85,156,88.3,156.1,89.1,159.8z" id="el_D0Rts-bbDo"/>
	<path d="M91.6,179.9c-1,3.2-2,5.5-3.3,7c-3.7-2-9.4-1.1-16.8-1.1&#10;&#9;&#9;c0.3-4.4,6.7-6.6,16-4.9l1.9-1.9L91.6,179.9z" id="el_Rpku_yHr4W"/>
	<polygon points="154.8,95.6 155.5,100.1 158.7,101.1 160.1,136.2 &#10;&#9;&#9;171.1,157.7 163.3,127.2 163.3,97 &#9;" id="el_PK01GbES1a"/>
	<polygon points="164.9,87.8 175.2,102.5 176.4,150.4 183,158.5 &#10;&#9;&#9;179.1,147 179.1,89.1 &#9;" id="el_F-TfkGaeDx"/>
	<polygon points="185.5,88 189,103.2 182.3,140.1 191.6,157.7 &#10;&#9;&#9;186.7,140.4 195,100.4 192.5,94.5 200.1,83.7 189.7,94.1 191.8,103.6 &#9;" id="el_JWu631jrVTN"/>
	<path d="M290.5,64.1l-28.9-2.5c-15-2.1-24,1.9-26.9,12&#10;&#9;&#9;c-9.7,9.2-15.5,17.4-17.3,24.4c-1,10,5.3,14.6,9.5,22.2l9.1-35.8c16.3-8.9,33.6-10.9,53.6-12.3L274,83c3,10.5,3.3,20.3,1.1,29.3&#10;&#9;&#9;C292.8,91,298,74.9,290.5,64.1z" id="el_CSrYAp5Wo29"/>
	<polygon points="219.4,75.1 209,105.5 221.9,130.8 205.3,111.6 &#10;&#9;&#9;202.6,125.7 211.6,147 198.4,130.1 201.9,104.8 206.9,109.8 202.8,99.9 &#9;" id="el_n8D0S9vhs1R"/>
	<polygon points="221.4,64.4 204.6,77.2 204.6,88.7 209.2,78.1 &#9;" id="el_A_4HGy_ep4t"/>
	<polygon points="156.9,131 150.9,143.6 138.9,142.3 169.1,160.1 &#10;&#9;&#9;159.6,143.1 155.5,147.2 158.4,136.2 &#9;" id="el_XEK9BmflFZP"/>
	<polygon points="158.2,160.6 133.5,144.5 128.4,135.3 109.6,139 &#10;&#9;&#9;127,145.5 130.4,153.7 &#9;" id="el_BvoRjda3K-k"/>
	<polygon points="104.7,112.6 108.1,131.6 97.4,122.3 98.1,115.8 &#9;" id="el_UnSfgYbDqXW"/>
	<path d="M75.7,130.7c4.7-1.9,9.7-1.5,15,1.1l17.2,12l-16.1-6.2&#10;&#9;&#9;l-6.6,5.4L75.7,130.7z" id="el_r9wbu7p0SyK"/>
	<path d="M80.3,152.8l-8.6-11.7c-12.3-2.6-23-1.8-26.1,6.6l5.1,9&#10;&#9;&#9;c3.1-5.4,6.6-7.1,10.5-5.1c2.8-2.4,5.8-2.4,9.2,0C72.2,149.7,75.4,150.1,80.3,152.8z" id="el_0x_ZsWW_XJP"/>
	<path d="M239.1,181.3l-9.5,2c-4.1,3.7-8.9,4.3-14.4,1.7&#10;&#9;&#9;c-2.3,2.7-5.1,2.7-8.3,0c-1.3,2.3-3.8,2.7-7.3,1.1c1.6,8.3,4.3,12.7,8,13.1C221.7,196.6,232.2,190.6,239.1,181.3z" id="el_BR6czkb9re9"/>
	<polygon points="198,185 191.6,188.4 193.6,200.8 188.6,187.7 &#10;&#9;&#9;182.6,188.7 185.5,199.9 194,208.4 210.1,206.8 196.8,202.6 208.1,203.6 199.8,200.4 &#9;" id="el_FtPCdmO2g1_"/>
	<path d="M178.7,190.2c-0.3,6.5,0.9,10.8,3.4,12.9l-15.9-0.9l7.1-7.1&#10;&#9;&#9;c-5.7,1.1-10.1-0.2-13-3.7L178.7,190.2z" id="el__VvdECy48dN"/>
	<polygon points="172.9,186.8 151.1,187 136.9,182.1 &#9;" id="el_StPT-2gCZnD"/>
	<polygon points="179.7,166 106.4,165.7 106.4,168.4 148,171.2 &#10;&#9;&#9;105.9,171.6 105.9,174.8 179.7,176 &#9;" id="el__MAa-C67ft0"/>
	<polygon points="184.8,164.5 185.2,178.3 190.3,177.9 190.3,164.9 &#9;" id="el__Cc5lkSfs6c"/>
	<g id="el_3BhMAvRW6wU">
		<ellipse cx="98.2" cy="169.4" rx="6.7" ry="23" id="el_sBihTCZycRU"/>
	</g>
	<path d="M94.3,168c0-11.9,2-21.6,4.6-21.6c0.5,0,1,0.4,1.5,1.2c-1.9,2.7-3.2,10.9-3.2,20.7&#10;&#9;&#9;c0,9.5,1.3,17.5,3.1,20.4c-0.4,0.6-0.9,0.9-1.3,0.9C96.3,189.6,94.3,180,94.3,168z" id="el_mRBDAjpx5qO"/>
	<path d="M47.4,172.9l-40.9-2.8c-1.8-1-2.4-2.8-1.9-5.4&#10;&#9;&#9;c1.5,2,4.4,3.7,8.6,5l-3-5.7c2.1,3,5.5,5,10.2,5.9l-3-5.9c2.2,3.4,6.1,5.6,11.7,6.8l-5-6.7c4,3.2,7.4,5.6,10.5,7.2l-3.5-6.9&#10;&#9;&#9;c2.6,3.8,6.4,6.1,11.3,6.8l-2.6-6.1C41.4,168.4,44,171,47.4,172.9z" id="el_7vBUYfLPuC3"/>
	<path d="M230.2,176.3l122.6-7.3c2-1.5,3.4-4.1,4.3-7.8l-5.1,5.1&#10;&#9;&#9;L231.1,172L230.2,176.3z" id="el_Gixom1hZqwI"/>
	<polygon points="134.7,135.2 148.4,139.7 150.8,136.1 146.7,137.4 &#9;" id="el_4bKI-NsX29t"/>
	<path d="M115.9,104.2l1.3,2.2l7.3-1.5l4.7,1.7l-2.7,0.7&#10;&#9;&#9;c-0.8,2.2-1.9,3.5-3.3,4l-5.6-2.6l-1.8,2.3L115.9,104.2z" id="el_E0g_s23kWPH"/>
	<polygon points="108.6,105.3 110.3,105.6 112.3,107.1 111.5,110.1 &#10;&#9;&#9;110.4,111.2 108.1,108.9 &#9;" id="el_ZNlx1lYW5sV"/>
	<path d="M111.7,116.7l3.7,0.3c2.1-0.4,3.3-0.2,3.6,0.6l-4,3&#10;&#9;&#9;C113.2,119.7,112.1,118.4,111.7,116.7z" id="el_SV0eUa7eJZC"/>
	<path d="M120.4,124.7l-3.5-1.6l-1.8,0.9l-1.6-1l-2.1,2.1l2.7-0.1&#10;&#9;&#9;c0.6,0.8,1.5,0.8,2.5-0.1L120.4,124.7z" id="el_mgwqVCQdsA3"/>
	<path d="M120.2,127.7c-3.8,2.4-6.4,2.3-7.7-0.5L120.2,127.7z" id="el_P8ZKki3JlZA"/>
	<polygon points="166.1,204.7 182.8,206.8 161.7,207.7 &#9;" id="el_apVr8XdPYob"/>
	<polygon points="249,183.8 230.3,202.4 220.5,203.3 231.8,205.6 &#9;" id="el_bK5GTVPYyam"/>
	<polygon points="201.7,193.4 213.6,193.4 222.3,189.6 212.5,196.2 &#10;&#9;&#9;201.9,198.1 &#9;" id="el_IQsn_6JGLSC"/>
	<polygon points="239.9,60 227.6,63.7 223.9,77.9 229.9,65.4 &#9;" id="el_o3GpHjw69U2"/>
	<polygon points="111.2,151.7 119.8,162.6 131.9,160.9 &#9;" id="el_a6R1lMVgRvn"/>
	<polygon points="241.3,158.7 241.3,162.4 247.2,161.8 &#9;" id="el_nEE_6byFBKO"/>
	<polygon points="162.3,212.4 176.7,217.2 186.1,212.6 178.4,214.3 &#9;" id="el_bwa40Eb7Y-i"/>
	<path d="M155.1,212.4c-22.2,7.5-54.1,17.7-70,37.2l36.6,11.4&#10;&#9;&#9;C115.7,246.9,129.3,229.4,155.1,212.4z" id="el_ehttjxZwyYd"/>
	<polygon points="267.9,184.4 320.3,227.6 259,198.4 &#9;" id="el_UBZQJdsar2s"/>
	<path d="M163.1,218.4c-13.8,9.4-24.7,24.1-32.7,44.1l57.2-42l-17.8,7.1&#10;&#9;&#9;L163.1,218.4z" id="el_PQ_hbxy8m93"/>
	<path d="M77.3,140.9l-4.9-5.3c-13.9-1-24.6,2.5-32.1,10.6l1.4,7.1&#10;&#9;&#9;l-4.8-8.6c1.1-4.9,6.7-9.3,16.8-13.2h10.2l-10.1-3L43,133.2l11.1-7.4l17.1,4.6L77.3,140.9z" id="el_IBwPBCYgG5v"/>
</g></g>
</svg>